<svg xmlns="http://www.w3.org/2000/svg" version="1.1" xmlns:xlink="http://www.w3.org/1999/xlink" xmlns:svgjs="http://svgjs.com/svgjs" width="1336" height="768" preserveAspectRatio="none" viewBox="0 0 1336 768"><g mask="url(&quot;#SvgjsMask1021&quot;)" fill="none"><rect width="1336" height="768" x="0" y="0" fill="#0e2a47"></rect><path d="M102.257953792293 369.2093156878198L315.7237001465549 295.70716472655977 242.22154918529486 82.24141837229786 28.755802831032938 155.7435693335579z" fill="rgba(194, 24, 91, 1)" class="triangle-float3"></path><path d="M954.9627142074953 591.5011156673314L1076.2993287758047 778.3431172689453 1263.1413303774189 657.0065027006358 1141.8047158091092 470.1645010990219z" fill="rgba(194, 24, 91, 1)" class="triangle-float2"></path><path d="M713.657,814.715C790.276,818.732,864.815,776.841,900.56,708.952C934.317,644.839,912.128,570.119,875.297,507.721C839.228,446.615,784.596,390.692,713.657,392.311C644.664,393.886,596.226,453.63,564.311,514.818C535.185,570.66,529.797,634.609,557.872,690.986C589.555,754.608,642.679,810.994,713.657,814.715" fill="rgba(194, 24, 91, 1)" class="triangle-float3"></path><path d="M924.0589216824816 629.8138528612503L1119.1317330805493 636.6259455421895 930.8710143634207 434.74104146318257z" fill="rgba(194, 24, 91, 1)" class="triangle-float1"></path><path d="M354.6445685680688 607.2596905010596L202.33912999237458 577.6545122673604 172.73395175867535 729.9599508430546 325.03939033436956 759.5651290767538z" fill="rgba(194, 24, 91, 1)" class="triangle-float1"></path><path d="M719.7236878627418 556.1005108898128L614.2996426350483 696.0029441834995 754.2020759287349 801.4269894111931 859.6261211564286 661.5245561175063z" fill="rgba(194, 24, 91, 1)" class="triangle-float2"></path><path d="M184.3928950822769 465.04346246399734L30.42106826444865 543.4960267328297 108.87363253328097 697.467853550658 262.84545935110924 619.0152892818256z" fill="rgba(194, 24, 91, 1)" class="triangle-float1"></path><path d="M1237.8413571876931 289.2298257119739L1430.6790602730987 230.27342333674997 1371.7226578978748 37.43572025134446 1178.8849548124692 96.39212262656838z" fill="rgba(194, 24, 91, 1)" class="triangle-float2"></path></g><defs><mask id="SvgjsMask1021"><rect width="1336" height="768" fill="#ffffff"></rect></mask><style>
            @keyframes float1 {
                0%{transform: translate(0, 0)}
                50%{transform: translate(-10px, 0)}
                100%{transform: translate(0, 0)}
            }

            .triangle-float1 {
                animation: float1 5s infinite;
            }

            @keyframes float2 {
                0%{transform: translate(0, 0)}
                50%{transform: translate(-5px, -5px)}
                100%{transform: translate(0, 0)}
            }

            .triangle-float2 {
                animation: float2 4s infinite;
            }

            @keyframes float3 {
                0%{transform: translate(0, 0)}
                50%{transform: translate(0, -10px)}
                100%{transform: translate(0, 0)}
            }

            .triangle-float3 {
                animation: float3 6s infinite;
            }
        </style></defs></svg>