<svg id="visual" viewBox="0 0 960 540" width="960" height="540" xmlns="http://www.w3.org/2000/svg" xmlns:xlink="http://www.w3.org/1999/xlink" version="1.1"><rect x="0" y="0" width="960" height="540" fill="#001122"></rect><defs><linearGradient id="grad1_0" x1="43.8%" y1="100%" x2="100%" y2="0%"><stop offset="14.444444444444446%" stop-color="#c2185b" stop-opacity="1"></stop><stop offset="85.55555555555554%" stop-color="#c2185b" stop-opacity="1"></stop></linearGradient></defs><defs><linearGradient id="grad1_1" x1="43.8%" y1="100%" x2="100%" y2="0%"><stop offset="14.444444444444446%" stop-color="#c2185b" stop-opacity="1"></stop><stop offset="85.55555555555554%" stop-color="#8b2168" stop-opacity="1"></stop></linearGradient></defs><defs><linearGradient id="grad1_2" x1="43.8%" y1="100%" x2="100%" y2="0%"><stop offset="14.444444444444446%" stop-color="#4f2760" stop-opacity="1"></stop><stop offset="85.55555555555554%" stop-color="#8b2168" stop-opacity="1"></stop></linearGradient></defs><defs><linearGradient id="grad1_3" x1="43.8%" y1="100%" x2="100%" y2="0%"><stop offset="14.444444444444446%" stop-color="#4f2760" stop-opacity="1"></stop><stop offset="85.55555555555554%" stop-color="#1c2146" stop-opacity="1"></stop></linearGradient></defs><defs><linearGradient id="grad1_4" x1="43.8%" y1="100%" x2="100%" y2="0%"><stop offset="14.444444444444446%" stop-color="#001122" stop-opacity="1"></stop><stop offset="85.55555555555554%" stop-color="#1c2146" stop-opacity="1"></stop></linearGradient></defs><defs><linearGradient id="grad2_0" x1="0%" y1="100%" x2="56.3%" y2="0%"><stop offset="14.444444444444446%" stop-color="#c2185b" stop-opacity="1"></stop><stop offset="85.55555555555554%" stop-color="#c2185b" stop-opacity="1"></stop></linearGradient></defs><defs><linearGradient id="grad2_1" x1="0%" y1="100%" x2="56.3%" y2="0%"><stop offset="14.444444444444446%" stop-color="#8b2168" stop-opacity="1"></stop><stop offset="85.55555555555554%" stop-color="#c2185b" stop-opacity="1"></stop></linearGradient></defs><defs><linearGradient id="grad2_2" x1="0%" y1="100%" x2="56.3%" y2="0%"><stop offset="14.444444444444446%" stop-color="#8b2168" stop-opacity="1"></stop><stop offset="85.55555555555554%" stop-color="#4f2760" stop-opacity="1"></stop></linearGradient></defs><defs><linearGradient id="grad2_3" x1="0%" y1="100%" x2="56.3%" y2="0%"><stop offset="14.444444444444446%" stop-color="#1c2146" stop-opacity="1"></stop><stop offset="85.55555555555554%" stop-color="#4f2760" stop-opacity="1"></stop></linearGradient></defs><defs><linearGradient id="grad2_4" x1="0%" y1="100%" x2="56.3%" y2="0%"><stop offset="14.444444444444446%" stop-color="#1c2146" stop-opacity="1"></stop><stop offset="85.55555555555554%" stop-color="#001122" stop-opacity="1"></stop></linearGradient></defs><g transform="translate(960, 540)"><path d="M-324 0C-300.9 -47.9 -277.9 -95.8 -253.7 -146.5C-229.6 -197.2 -204.5 -250.6 -162 -280.6C-119.5 -310.6 -59.8 -317.3 0 -324L0 0Z" fill="#091a34"></path><path d="M-259.2 0C-240.7 -38.3 -222.3 -76.7 -203 -117.2C-183.7 -157.7 -163.6 -200.4 -129.6 -224.5C-95.6 -248.5 -47.8 -253.9 0 -259.2L0 0Z" fill="#342555"></path><path d="M-194.4 0C-180.6 -28.8 -166.7 -57.5 -152.2 -87.9C-137.8 -118.3 -122.7 -150.3 -97.2 -168.4C-71.7 -186.4 -35.9 -190.4 0 -194.4L0 0Z" fill="#6d2667"></path><path d="M-129.6 0C-120.4 -19.2 -111.1 -38.3 -101.5 -58.6C-91.9 -78.9 -81.8 -100.2 -64.8 -112.2C-47.8 -124.3 -23.9 -126.9 0 -129.6L0 0Z" fill="#a81b64"></path><path d="M-64.8 0C-60.2 -9.6 -55.6 -19.2 -50.7 -29.3C-45.9 -39.4 -40.9 -50.1 -32.4 -56.1C-23.9 -62.1 -12 -63.5 0 -64.8L0 0Z" fill="#c2185b"></path></g><g transform="translate(0, 0)"><path d="M324 0C318 60.9 312 121.8 280.6 162C249.2 202.2 192.5 221.5 141.5 245.1C90.5 268.6 45.3 296.3 0 324L0 0Z" fill="#091a34"></path><path d="M259.2 0C254.4 48.7 249.6 97.5 224.5 129.6C199.4 161.7 154 177.2 113.2 196.1C72.4 214.9 36.2 237 0 259.2L0 0Z" fill="#342555"></path><path d="M194.4 0C190.8 36.6 187.2 73.1 168.4 97.2C149.5 121.3 115.5 132.9 84.9 147.1C54.3 161.2 27.2 177.8 0 194.4L0 0Z" fill="#6d2667"></path><path d="M129.6 0C127.2 24.4 124.8 48.7 112.2 64.8C99.7 80.9 77 88.6 56.6 98C36.2 107.4 18.1 118.5 0 129.6L0 0Z" fill="#a81b64"></path><path d="M64.8 0C63.6 12.2 62.4 24.4 56.1 32.4C49.8 40.4 38.5 44.3 28.3 49C18.1 53.7 9.1 59.3 0 64.8L0 0Z" fill="#c2185b"></path></g></svg>